<?xml version="1.0" encoding="utf-8"?>
<!-- Generator: Adobe Illustrator 21.0.0, SVG Export Plug-In . SVG Version: 6.00 Build 0)  -->
<svg version="1.1" id="Camada_1" xmlns="http://www.w3.org/2000/svg" xmlns:xlink="http://www.w3.org/1999/xlink" x="0px" y="0px"
	 viewBox="0 0 997 306" style="enable-background:new 0 0 997 306;" xml:space="preserve">
<style type="text/css">
	.st0{fill:#292929;}
	.st1{fill:#EB5569;}
	.st2{fill:#F58A97;}
	.st3{fill:#F07281;}
</style>
<g>
	<path class="st0" d="M292.6,280.5c-3.4-2-23.8-14.6-34.7-37.5c25.5-23.9,40-57,40-91c0-70.3-61.3-128-136-128S26,81.7,26,152
		s61.3,128,136,128c10,0,20.8-0.9,35.7-4.1c39.1,20.8,74.1,20.2,87.4,20c5.9-0.1,10.2,1,12.5-5.1C299,286.7,296.8,281.9,292.6,280.5
		z"/>
	<g>
		<g id="XMLID_107_">
			<g>
				<path class="st1" d="M241,146.3c0.5,7.1-4.4,13.3-11.1,14c-5.1,0.5-9.7-2.4-11.9-7l-6.1,0.5l-4.6,2.2c-1,0.5-1.7,1.5-1.9,2.7
					c-0.4,3.1-1.2,6.1-2.3,8.9c-0.4,1-0.3,2,0.2,2.9l1.6,2.9l4.5,3c2.4-0.9,5.2-0.7,7.5,0.8c3.9,2.6,4.8,8,1.9,11.7
					c-2.5,3.2-7.1,4.1-10.6,2.1c-2.2-1.3-3.6-3.5-3.9-5.9l-5-3.4l-3.2-0.4c-1.1-0.1-2.2,0.2-3,1c-2.7,2.5-5.7,4.7-8.9,6.5
					c-1.1,0.6-1.8,1.7-1.9,3l-0.4,6.4l2,7.9c3.4,0.9,6.2,3.6,7.1,7.3c1.4,5.5-2,11.1-7.6,12.3c-5,1.1-10.2-1.8-11.8-6.7
					c-1.2-3.8-0.1-7.8,2.5-10.4l-2-7.9l-3.1-5c-0.8-1.3-2.3-2.1-3.9-2.1c0,0,0,0,0,0c-2.7,0-5.3-0.3-7.9-0.8
					c-1.5-0.3-3.1,0.2-4.2,1.3l-4.1,4.3l-4.6,9.5c1.1,2.2,1.2,4.8,0,7.1c-2,4.2-7.2,5.9-11.3,3.6c-3.5-2-5.1-6.4-3.5-10.2
					c1.1-2.6,3.2-4.3,5.7-4.9l4.6-9.5l0.9-6.4c0.2-1.2-0.3-2.4-1.2-3.1c-3.6-3-6.8-6.5-9.2-10.6c-0.6-1-1.7-1.6-2.9-1.6l-6.4-0.1
					l-7,2.2c-0.5,4.3-3.5,8.2-7.9,9.6c-6,1.9-12.3-1.4-14.2-7.3c-1.9-5.9,1.3-12.4,7.2-14.4c4.1-1.4,8.5-0.2,11.4,2.6l7.4-2.3
					l5.4-3.9c0.8-0.6,1.2-1.5,1.2-2.5c-0.1-1.1-0.1-2.2-0.1-3.3c0-6,1.3-11.8,3.7-16.9c0.3-0.8,0.3-1.6,0-2.4l-1.6-3.3l-4.4-3.3
					c-2.4,0.8-5.2,0.4-7.4-1.2c-3.7-2.8-4.4-8.2-1.3-11.8c2.7-3.1,7.3-3.7,10.7-1.5c2.2,1.5,3.4,3.7,3.6,6.1l4.8,3.6l4.9,0.9
					c3.5-3.3,7.7-5.9,12.2-7.8l1.1-6.9l-1.4-7.2c-4.3-1.1-7.7-4.4-8.7-8.7c-1.3-6.2,2.9-12.1,9.4-13.4c6.5-1.2,12.9,2.7,14.2,8.9
					c1,4.6-1.1,9.1-5,11.6l1.4,6.8l3.3,5.3c0.2,0.3,0.6,0.6,1,0.6h0c7.7,0,14.8,2.1,20.9,5.8c0.3,0.2,0.7,0.2,1.1,0.1l5.2-2.4
					l6.1-6.6c-0.4-2.4,0.3-4.9,2.1-6.8c3.2-3.4,8.6-3.5,11.9-0.1c2.9,3,3,7.8,0.3,10.9c-1.8,2-4.3,3-6.8,2.8l-6.1,6.6l-2,5.3
					c-0.1,0.4-0.1,0.8,0.2,1.1c2.4,3.3,4.3,7,5.7,10.9c0.4,1.1,1.2,1.9,2.3,2.2l5,1.4l6.5-0.6c1.6-4.6,5.5-8,10.4-8.5
					C234.6,134.1,240.4,139.3,241,146.3L241,146.3z"/>
			</g>
		</g>
		<g id="XMLID_8_">
			<g>
				<circle class="st2" cx="165.2" cy="153.1" r="30.1"/>
			</g>
		</g>
		<path class="st3" d="M144.3,153.1c0-15.1,11.1-27.5,25.5-29.7c-1.5-0.2-3-0.3-4.6-0.3c-16.6,0-30.1,13.5-30.1,30.1
			s13.5,30.1,30.1,30.1c1.6,0,3.1-0.1,4.6-0.3C155.4,180.6,144.3,168.2,144.3,153.1L144.3,153.1z"/>
		<g>
			<circle class="st1" cx="114.6" cy="89.8" r="8.6"/>
			<circle class="st1" cx="112.3" cy="202.8" r="5.7"/>
			<circle class="st1" cx="216.2" cy="212.1" r="8.3"/>
			<circle class="st1" cx="156" cy="144.8" r="7.8"/>
			<circle class="st1" cx="162.2" cy="168.9" r="5.3"/>
			<circle class="st1" cx="178.8" cy="153.1" r="4.4"/>
		</g>
	</g>
</g>
<g>
	<path class="st0" d="M330.3,82.4h22.3v141.9h-22.3V82.4z"/>
	<path class="st0" d="M369.2,82.4h28l21.7,84.9h0.4V82.4h19.9v141.9h-22.9l-26.8-103.6h-0.4v103.6h-19.9V82.4z"/>
	<path class="st0" d="M455.8,82.4h59v20.3h-36.7v39.5h28.8v20.3h-28.8v61.8h-22.3V82.4z"/>
	<path class="st0" d="M523.9,190.7v-74.6c0-22.7,12-35.7,33.8-35.7c21.9,0,33.8,13,33.8,35.7v74.6c0,22.7-12,35.7-33.8,35.7
		C535.8,226.4,523.9,213.4,523.9,190.7z M569.3,192.1v-77.4c0-10.1-4.5-14-11.6-14c-7.1,0-11.6,3.9-11.6,14v77.4
		c0,10.1,4.5,14,11.6,14C564.8,206.1,569.3,202.2,569.3,192.1z"/>
	<path class="st0" d="M637.6,191.5v-76.2c0-21.9,11.3-34.9,32.8-34.9s32.8,13,32.8,34.9v15h-21.1v-16.4c0-9.3-4.5-13.2-11.1-13.2
		s-11.1,3.9-11.1,13.2v79.2c0,9.3,4.5,13,11.1,13s11.1-3.6,11.1-13v-21.7h21.1v20.1c0,21.9-11.4,34.9-32.8,34.9
		S637.6,213.4,637.6,191.5z"/>
	<path class="st0" d="M715.4,190.7v-74.6c0-22.7,12-35.7,33.8-35.7s33.8,13,33.8,35.7v74.6c0,22.7-12,35.7-33.8,35.7
		S715.4,213.4,715.4,190.7z M760.8,192.1v-77.4c0-10.1-4.5-14-11.6-14c-7.1,0-11.6,3.9-11.6,14v77.4c0,10.1,4.5,14,11.6,14
		C756.3,206.1,760.8,202.2,760.8,192.1z"/>
	<path class="st0" d="M791.8,82.4h22.5l14.6,110.1h0.4l14.6-110.1h20.5l-21.5,141.9h-29.6L791.8,82.4z"/>
	<path class="st0" d="M875.1,82.4h22.3v141.9h-22.3V82.4z"/>
	<path class="st0" d="M914,82.4h34.1c22.3,0,33.2,12.4,33.2,35.1v71.7c0,22.7-10.9,35.1-33.2,35.1H914V82.4z M947.7,204.1
		c7.1,0,11.4-3.6,11.4-13.8v-73.8c0-10.1-4.3-13.8-11.4-13.8h-11.3v101.3H947.7z"/>
</g>
</svg>
